#N canvas 65 21 1763 901 12;
#X obj 107 82 udpreceive 5006;
#X obj 97 132 oscparse;
#X obj 90 175 route /xiao/c3_01/distance;
#X obj 90 227 unpack f;
#X obj 101 274 * 3;
#X obj 118 324 * 200;
#X obj 163 393 osc~;
#X obj 182 443 *~ 0.5;
#X obj 294 473 dac~;
#X obj 402 134 route list;
#X obj 417 193 unpack s s s f;
#X obj 435 260 print;
#X connect 0 0 1 0;
#X connect 1 0 2 0;
#X connect 1 0 9 0;
#X connect 2 0 3 0;
#X connect 4 0 5 0;
#X connect 5 0 6 0;
#X connect 6 0 7 0;
#X connect 7 0 8 0;
#X connect 9 0 10 0;
#X connect 10 0 11 0;
